<mxfile host="app.diagrams.net" modified="2022-11-01T18:31:16.522Z" agent="5.0 (Windows)" etag="1IiyFzfgkyJe5bIY_aps" version="20.5.1" type="github">
  <diagram id="MI43r-PULVihkDfgcI1h" name="PÃ¡gina-1">
    <mxGraphModel dx="2578" dy="2559" grid="1" gridSize="10" guides="1" tooltips="1" connect="1" arrows="1" fold="1" page="1" pageScale="1" pageWidth="827" pageHeight="1169" math="0" shadow="0">
      <root>
        <mxCell id="0" />
        <mxCell id="1" parent="0" />
        <mxCell id="xzz0txXrnWbbVvJYxzM9-16" style="edgeStyle=orthogonalEdgeStyle;rounded=0;orthogonalLoop=1;jettySize=auto;html=1;exitX=1;exitY=0.5;exitDx=0;exitDy=0;entryX=0;entryY=0.5;entryDx=0;entryDy=0;endArrow=none;endFill=0;" parent="1" source="xzz0txXrnWbbVvJYxzM9-2" target="xzz0txXrnWbbVvJYxzM9-11" edge="1">
          <mxGeometry relative="1" as="geometry" />
        </mxCell>
        <mxCell id="xzz0txXrnWbbVvJYxzM9-17" value="(1,1)" style="edgeLabel;html=1;align=center;verticalAlign=middle;resizable=0;points=[];" parent="xzz0txXrnWbbVvJYxzM9-16" vertex="1" connectable="0">
          <mxGeometry x="-0.2245" relative="1" as="geometry">
            <mxPoint as="offset" />
          </mxGeometry>
        </mxCell>
        <mxCell id="Kj0WefBD7DP0aJq1Dyyi-18" style="edgeStyle=orthogonalEdgeStyle;rounded=0;orthogonalLoop=1;jettySize=auto;html=1;exitX=0;exitY=0.75;exitDx=0;exitDy=0;entryX=0.5;entryY=0;entryDx=0;entryDy=0;endArrow=none;endFill=0;" parent="1" source="xzz0txXrnWbbVvJYxzM9-2" target="Kj0WefBD7DP0aJq1Dyyi-14" edge="1">
          <mxGeometry relative="1" as="geometry" />
        </mxCell>
        <mxCell id="Kj0WefBD7DP0aJq1Dyyi-19" style="edgeStyle=orthogonalEdgeStyle;rounded=0;orthogonalLoop=1;jettySize=auto;html=1;exitX=1;exitY=0.75;exitDx=0;exitDy=0;entryX=0.5;entryY=0;entryDx=0;entryDy=0;endArrow=none;endFill=0;" parent="1" source="xzz0txXrnWbbVvJYxzM9-2" edge="1">
          <mxGeometry relative="1" as="geometry">
            <mxPoint x="162" y="500.0000000000001" as="targetPoint" />
          </mxGeometry>
        </mxCell>
        <mxCell id="Kj0WefBD7DP0aJq1Dyyi-20" style="edgeStyle=orthogonalEdgeStyle;rounded=0;orthogonalLoop=1;jettySize=auto;html=1;exitX=0.5;exitY=1;exitDx=0;exitDy=0;entryX=0.5;entryY=0;entryDx=0;entryDy=0;endArrow=none;endFill=0;" parent="1" source="xzz0txXrnWbbVvJYxzM9-2" target="Kj0WefBD7DP0aJq1Dyyi-17" edge="1">
          <mxGeometry relative="1" as="geometry" />
        </mxCell>
        <mxCell id="Kj0WefBD7DP0aJq1Dyyi-55" style="edgeStyle=orthogonalEdgeStyle;rounded=0;orthogonalLoop=1;jettySize=auto;html=1;entryX=0.63;entryY=0.022;entryDx=0;entryDy=0;entryPerimeter=0;endArrow=none;endFill=0;" parent="1" edge="1">
          <mxGeometry relative="1" as="geometry">
            <mxPoint x="68" y="480" as="sourcePoint" />
            <mxPoint x="53.40000000000009" y="546.8800000000001" as="targetPoint" />
            <Array as="points">
              <mxPoint x="63" y="480" />
              <mxPoint x="63" y="547" />
            </Array>
          </mxGeometry>
        </mxCell>
        <mxCell id="xzz0txXrnWbbVvJYxzM9-2" value="PROVEEDOR" style="whiteSpace=wrap;html=1;align=center;fillColor=#d5e8d4;strokeColor=#82b366;strokeWidth=2;" parent="1" vertex="1">
          <mxGeometry x="50" y="441" width="100" height="40" as="geometry" />
        </mxCell>
        <mxCell id="xzz0txXrnWbbVvJYxzM9-24" style="edgeStyle=orthogonalEdgeStyle;rounded=0;orthogonalLoop=1;jettySize=auto;html=1;exitX=0.5;exitY=0;exitDx=0;exitDy=0;endArrow=none;endFill=0;entryX=0;entryY=0.5;entryDx=0;entryDy=0;" parent="1" source="xzz0txXrnWbbVvJYxzM9-3" target="xzz0txXrnWbbVvJYxzM9-19" edge="1">
          <mxGeometry relative="1" as="geometry">
            <mxPoint x="440" y="350" as="targetPoint" />
          </mxGeometry>
        </mxCell>
        <mxCell id="xzz0txXrnWbbVvJYxzM9-25" value="(1,N)" style="edgeLabel;html=1;align=center;verticalAlign=middle;resizable=0;points=[];" parent="xzz0txXrnWbbVvJYxzM9-24" vertex="1" connectable="0">
          <mxGeometry x="-0.1699" y="-1" relative="1" as="geometry">
            <mxPoint x="-1" y="1" as="offset" />
          </mxGeometry>
        </mxCell>
        <mxCell id="xzz0txXrnWbbVvJYxzM9-29" style="edgeStyle=orthogonalEdgeStyle;rounded=0;orthogonalLoop=1;jettySize=auto;html=1;exitX=1;exitY=0.5;exitDx=0;exitDy=0;entryX=0;entryY=0.5;entryDx=0;entryDy=0;endArrow=none;endFill=0;" parent="1" source="xzz0txXrnWbbVvJYxzM9-3" target="xzz0txXrnWbbVvJYxzM9-27" edge="1">
          <mxGeometry relative="1" as="geometry" />
        </mxCell>
        <mxCell id="Kj0WefBD7DP0aJq1Dyyi-9" value="(1,N)" style="edgeLabel;html=1;align=center;verticalAlign=middle;resizable=0;points=[];" parent="xzz0txXrnWbbVvJYxzM9-29" vertex="1" connectable="0">
          <mxGeometry x="-0.3286" y="-1" relative="1" as="geometry">
            <mxPoint as="offset" />
          </mxGeometry>
        </mxCell>
        <mxCell id="Kj0WefBD7DP0aJq1Dyyi-49" style="edgeStyle=orthogonalEdgeStyle;rounded=0;orthogonalLoop=1;jettySize=auto;html=1;exitX=0.5;exitY=1;exitDx=0;exitDy=0;endArrow=none;endFill=0;" parent="1" source="xzz0txXrnWbbVvJYxzM9-3" edge="1">
          <mxGeometry relative="1" as="geometry">
            <mxPoint x="440.2758620689656" y="481.0689655172414" as="targetPoint" />
          </mxGeometry>
        </mxCell>
        <mxCell id="Ck0YGmdOxlJx7nrVWxFj-24" style="edgeStyle=orthogonalEdgeStyle;rounded=0;orthogonalLoop=1;jettySize=auto;html=1;exitX=0;exitY=1;exitDx=0;exitDy=0;entryX=1;entryY=0.5;entryDx=0;entryDy=0;endArrow=none;endFill=0;" edge="1" parent="1" source="xzz0txXrnWbbVvJYxzM9-3" target="Ck0YGmdOxlJx7nrVWxFj-13">
          <mxGeometry relative="1" as="geometry" />
        </mxCell>
        <mxCell id="Ck0YGmdOxlJx7nrVWxFj-27" style="edgeStyle=orthogonalEdgeStyle;rounded=0;orthogonalLoop=1;jettySize=auto;html=1;exitX=0.25;exitY=1;exitDx=0;exitDy=0;entryX=0.5;entryY=0;entryDx=0;entryDy=0;endArrow=none;endFill=0;" edge="1" parent="1" source="xzz0txXrnWbbVvJYxzM9-3" target="Ck0YGmdOxlJx7nrVWxFj-14">
          <mxGeometry relative="1" as="geometry" />
        </mxCell>
        <mxCell id="Ck0YGmdOxlJx7nrVWxFj-28" style="edgeStyle=orthogonalEdgeStyle;rounded=0;orthogonalLoop=1;jettySize=auto;html=1;exitX=0.5;exitY=1;exitDx=0;exitDy=0;entryX=0.5;entryY=0;entryDx=0;entryDy=0;endArrow=none;endFill=0;" edge="1" parent="1" source="xzz0txXrnWbbVvJYxzM9-3" target="Ck0YGmdOxlJx7nrVWxFj-17">
          <mxGeometry relative="1" as="geometry" />
        </mxCell>
        <mxCell id="Ck0YGmdOxlJx7nrVWxFj-29" style="edgeStyle=orthogonalEdgeStyle;rounded=0;orthogonalLoop=1;jettySize=auto;html=1;exitX=0.75;exitY=1;exitDx=0;exitDy=0;entryX=0;entryY=0;entryDx=0;entryDy=0;endArrow=none;endFill=0;" edge="1" parent="1" source="xzz0txXrnWbbVvJYxzM9-3" target="Ck0YGmdOxlJx7nrVWxFj-18">
          <mxGeometry relative="1" as="geometry" />
        </mxCell>
        <mxCell id="xzz0txXrnWbbVvJYxzM9-3" value="PRODUCTO" style="whiteSpace=wrap;html=1;align=center;fillColor=#d5e8d4;strokeColor=#82b366;strokeWidth=2;" parent="1" vertex="1">
          <mxGeometry x="390" y="441" width="100" height="40" as="geometry" />
        </mxCell>
        <mxCell id="xzz0txXrnWbbVvJYxzM9-12" style="edgeStyle=orthogonalEdgeStyle;rounded=0;orthogonalLoop=1;jettySize=auto;html=1;exitX=1;exitY=0.5;exitDx=0;exitDy=0;endArrow=none;endFill=0;" parent="1" source="xzz0txXrnWbbVvJYxzM9-11" target="xzz0txXrnWbbVvJYxzM9-3" edge="1">
          <mxGeometry relative="1" as="geometry" />
        </mxCell>
        <mxCell id="xzz0txXrnWbbVvJYxzM9-13" value="(1,N) " style="edgeLabel;html=1;align=center;verticalAlign=middle;resizable=0;points=[];" parent="xzz0txXrnWbbVvJYxzM9-12" vertex="1" connectable="0">
          <mxGeometry x="0.1491" relative="1" as="geometry">
            <mxPoint as="offset" />
          </mxGeometry>
        </mxCell>
        <mxCell id="xzz0txXrnWbbVvJYxzM9-11" value="PROVEE" style="shape=rhombus;perimeter=rhombusPerimeter;whiteSpace=wrap;html=1;align=center;fillColor=#fff2cc;strokeColor=#d6b656;strokeWidth=2;" parent="1" vertex="1">
          <mxGeometry x="215" y="431" width="120" height="60" as="geometry" />
        </mxCell>
        <mxCell id="xzz0txXrnWbbVvJYxzM9-18" value="1:N" style="text;html=1;align=center;verticalAlign=middle;resizable=0;points=[];autosize=1;strokeColor=none;fillColor=none;" parent="1" vertex="1">
          <mxGeometry x="256" y="410" width="40" height="30" as="geometry" />
        </mxCell>
        <mxCell id="xzz0txXrnWbbVvJYxzM9-19" value="CLASIFICA" style="shape=rhombus;perimeter=rhombusPerimeter;whiteSpace=wrap;html=1;align=center;fillColor=#fff2cc;strokeColor=#d6b656;strokeWidth=2;" parent="1" vertex="1">
          <mxGeometry x="460" y="285" width="120" height="60" as="geometry" />
        </mxCell>
        <mxCell id="xzz0txXrnWbbVvJYxzM9-21" style="edgeStyle=orthogonalEdgeStyle;rounded=0;orthogonalLoop=1;jettySize=auto;html=1;entryX=1;entryY=0.5;entryDx=0;entryDy=0;endArrow=none;endFill=0;" parent="1" source="xzz0txXrnWbbVvJYxzM9-20" target="xzz0txXrnWbbVvJYxzM9-19" edge="1">
          <mxGeometry relative="1" as="geometry" />
        </mxCell>
        <mxCell id="xzz0txXrnWbbVvJYxzM9-22" value="(1,1)" style="edgeLabel;html=1;align=center;verticalAlign=middle;resizable=0;points=[];" parent="xzz0txXrnWbbVvJYxzM9-21" vertex="1" connectable="0">
          <mxGeometry x="0.1468" relative="1" as="geometry">
            <mxPoint as="offset" />
          </mxGeometry>
        </mxCell>
        <mxCell id="Ck0YGmdOxlJx7nrVWxFj-33" style="edgeStyle=orthogonalEdgeStyle;rounded=0;orthogonalLoop=1;jettySize=auto;html=1;exitX=1;exitY=0.5;exitDx=0;exitDy=0;entryX=0;entryY=0.5;entryDx=0;entryDy=0;endArrow=none;endFill=0;" edge="1" parent="1" source="xzz0txXrnWbbVvJYxzM9-20" target="Ck0YGmdOxlJx7nrVWxFj-30">
          <mxGeometry relative="1" as="geometry" />
        </mxCell>
        <mxCell id="Ck0YGmdOxlJx7nrVWxFj-34" style="edgeStyle=orthogonalEdgeStyle;rounded=0;orthogonalLoop=1;jettySize=auto;html=1;exitX=0.75;exitY=0;exitDx=0;exitDy=0;entryX=0.5;entryY=1;entryDx=0;entryDy=0;endArrow=none;endFill=0;" edge="1" parent="1" source="xzz0txXrnWbbVvJYxzM9-20" target="Ck0YGmdOxlJx7nrVWxFj-32">
          <mxGeometry relative="1" as="geometry" />
        </mxCell>
        <mxCell id="Ck0YGmdOxlJx7nrVWxFj-35" style="edgeStyle=orthogonalEdgeStyle;rounded=0;orthogonalLoop=1;jettySize=auto;html=1;exitX=0.25;exitY=0;exitDx=0;exitDy=0;entryX=0.5;entryY=1;entryDx=0;entryDy=0;endArrow=none;endFill=0;" edge="1" parent="1" source="xzz0txXrnWbbVvJYxzM9-20" target="Ck0YGmdOxlJx7nrVWxFj-31">
          <mxGeometry relative="1" as="geometry" />
        </mxCell>
        <mxCell id="xzz0txXrnWbbVvJYxzM9-20" value="CATEGORÃA" style="whiteSpace=wrap;html=1;align=center;fillColor=#d5e8d4;strokeColor=#82b366;strokeWidth=2;" parent="1" vertex="1">
          <mxGeometry x="650" y="295" width="100" height="40" as="geometry" />
        </mxCell>
        <mxCell id="xzz0txXrnWbbVvJYxzM9-26" value="1:N" style="text;html=1;align=center;verticalAlign=middle;resizable=0;points=[];autosize=1;strokeColor=none;fillColor=none;" parent="1" vertex="1">
          <mxGeometry x="500" y="265" width="40" height="30" as="geometry" />
        </mxCell>
        <mxCell id="Ck0YGmdOxlJx7nrVWxFj-2" style="edgeStyle=orthogonalEdgeStyle;rounded=0;orthogonalLoop=1;jettySize=auto;html=1;exitX=0.5;exitY=1;exitDx=0;exitDy=0;entryX=0.5;entryY=0;entryDx=0;entryDy=0;endArrow=none;endFill=0;" edge="1" parent="1" source="xzz0txXrnWbbVvJYxzM9-27" target="Ck0YGmdOxlJx7nrVWxFj-1">
          <mxGeometry relative="1" as="geometry" />
        </mxCell>
        <mxCell id="xzz0txXrnWbbVvJYxzM9-27" value="DETALLE" style="shape=rhombus;perimeter=rhombusPerimeter;whiteSpace=wrap;html=1;align=center;fillColor=#fff2cc;strokeColor=#d6b656;strokeWidth=2;" parent="1" vertex="1">
          <mxGeometry x="550" y="431" width="120" height="60" as="geometry" />
        </mxCell>
        <mxCell id="xzz0txXrnWbbVvJYxzM9-30" style="edgeStyle=orthogonalEdgeStyle;rounded=0;orthogonalLoop=1;jettySize=auto;html=1;exitX=0;exitY=0.5;exitDx=0;exitDy=0;entryX=1;entryY=0.5;entryDx=0;entryDy=0;endArrow=none;endFill=0;" parent="1" source="xzz0txXrnWbbVvJYxzM9-28" target="xzz0txXrnWbbVvJYxzM9-27" edge="1">
          <mxGeometry relative="1" as="geometry" />
        </mxCell>
        <mxCell id="Kj0WefBD7DP0aJq1Dyyi-11" value="(0,N)" style="edgeLabel;html=1;align=center;verticalAlign=middle;resizable=0;points=[];" parent="xzz0txXrnWbbVvJYxzM9-30" vertex="1" connectable="0">
          <mxGeometry x="-0.3726" y="-1" relative="1" as="geometry">
            <mxPoint as="offset" />
          </mxGeometry>
        </mxCell>
        <mxCell id="Ck0YGmdOxlJx7nrVWxFj-9" style="edgeStyle=orthogonalEdgeStyle;rounded=0;orthogonalLoop=1;jettySize=auto;html=1;exitX=1;exitY=0;exitDx=0;exitDy=0;entryX=0;entryY=0.5;entryDx=0;entryDy=0;endArrow=none;endFill=0;" edge="1" parent="1" source="xzz0txXrnWbbVvJYxzM9-28" target="Ck0YGmdOxlJx7nrVWxFj-3">
          <mxGeometry relative="1" as="geometry" />
        </mxCell>
        <mxCell id="Ck0YGmdOxlJx7nrVWxFj-10" style="edgeStyle=orthogonalEdgeStyle;rounded=0;orthogonalLoop=1;jettySize=auto;html=1;exitX=1;exitY=0.5;exitDx=0;exitDy=0;entryX=0;entryY=0.5;entryDx=0;entryDy=0;endArrow=none;endFill=0;" edge="1" parent="1" source="xzz0txXrnWbbVvJYxzM9-28" target="Ck0YGmdOxlJx7nrVWxFj-4">
          <mxGeometry relative="1" as="geometry" />
        </mxCell>
        <mxCell id="Ck0YGmdOxlJx7nrVWxFj-11" style="edgeStyle=orthogonalEdgeStyle;rounded=0;orthogonalLoop=1;jettySize=auto;html=1;exitX=1;exitY=1;exitDx=0;exitDy=0;entryX=0;entryY=0.5;entryDx=0;entryDy=0;endArrow=none;endFill=0;" edge="1" parent="1" source="xzz0txXrnWbbVvJYxzM9-28" target="Ck0YGmdOxlJx7nrVWxFj-5">
          <mxGeometry relative="1" as="geometry" />
        </mxCell>
        <mxCell id="Ck0YGmdOxlJx7nrVWxFj-12" style="edgeStyle=orthogonalEdgeStyle;rounded=0;orthogonalLoop=1;jettySize=auto;html=1;exitX=0.75;exitY=0;exitDx=0;exitDy=0;entryX=0.286;entryY=1.05;entryDx=0;entryDy=0;entryPerimeter=0;endArrow=none;endFill=0;" edge="1" parent="1" source="xzz0txXrnWbbVvJYxzM9-28" target="Ck0YGmdOxlJx7nrVWxFj-6">
          <mxGeometry relative="1" as="geometry" />
        </mxCell>
        <mxCell id="xzz0txXrnWbbVvJYxzM9-28" value="VENTA" style="whiteSpace=wrap;html=1;align=center;fillColor=#d5e8d4;strokeColor=#82b366;strokeWidth=2;" parent="1" vertex="1">
          <mxGeometry x="750" y="441" width="100" height="40" as="geometry" />
        </mxCell>
        <mxCell id="Kj0WefBD7DP0aJq1Dyyi-5" style="edgeStyle=orthogonalEdgeStyle;rounded=0;orthogonalLoop=1;jettySize=auto;html=1;exitX=1;exitY=0.5;exitDx=0;exitDy=0;entryX=0.5;entryY=1;entryDx=0;entryDy=0;endArrow=none;endFill=0;" parent="1" source="Kj0WefBD7DP0aJq1Dyyi-1" target="xzz0txXrnWbbVvJYxzM9-28" edge="1">
          <mxGeometry relative="1" as="geometry">
            <mxPoint x="392" y="632" as="sourcePoint" />
            <mxPoint x="440" y="481.0000000000001" as="targetPoint" />
          </mxGeometry>
        </mxCell>
        <mxCell id="Kj0WefBD7DP0aJq1Dyyi-6" value="(1,1)" style="edgeLabel;html=1;align=center;verticalAlign=middle;resizable=0;points=[];" parent="Kj0WefBD7DP0aJq1Dyyi-5" vertex="1" connectable="0">
          <mxGeometry x="-0.6673" relative="1" as="geometry">
            <mxPoint x="-7" as="offset" />
          </mxGeometry>
        </mxCell>
        <mxCell id="Kj0WefBD7DP0aJq1Dyyi-1" value="COMPRA" style="shape=rhombus;perimeter=rhombusPerimeter;whiteSpace=wrap;html=1;align=center;fillColor=#fff2cc;strokeColor=#d6b656;strokeWidth=2;" parent="1" vertex="1">
          <mxGeometry x="518" y="617" width="120" height="60" as="geometry" />
        </mxCell>
        <mxCell id="Kj0WefBD7DP0aJq1Dyyi-4" style="edgeStyle=orthogonalEdgeStyle;rounded=0;orthogonalLoop=1;jettySize=auto;html=1;exitX=1;exitY=0.5;exitDx=0;exitDy=0;entryX=0;entryY=0.5;entryDx=0;entryDy=0;" parent="1" source="Kj0WefBD7DP0aJq1Dyyi-3" target="Kj0WefBD7DP0aJq1Dyyi-1" edge="1">
          <mxGeometry relative="1" as="geometry" />
        </mxCell>
        <mxCell id="Kj0WefBD7DP0aJq1Dyyi-7" value="(1,N)" style="edgeLabel;html=1;align=center;verticalAlign=middle;resizable=0;points=[];" parent="Kj0WefBD7DP0aJq1Dyyi-4" vertex="1" connectable="0">
          <mxGeometry x="-0.3223" y="-2" relative="1" as="geometry">
            <mxPoint as="offset" />
          </mxGeometry>
        </mxCell>
        <mxCell id="Kj0WefBD7DP0aJq1Dyyi-50" style="edgeStyle=orthogonalEdgeStyle;rounded=0;orthogonalLoop=1;jettySize=auto;html=1;exitX=0;exitY=1;exitDx=0;exitDy=0;entryX=0.5;entryY=0;entryDx=0;entryDy=0;endArrow=none;endFill=0;" parent="1" source="Kj0WefBD7DP0aJq1Dyyi-3" target="Kj0WefBD7DP0aJq1Dyyi-32" edge="1">
          <mxGeometry relative="1" as="geometry" />
        </mxCell>
        <mxCell id="Kj0WefBD7DP0aJq1Dyyi-3" value="CLIENTE" style="whiteSpace=wrap;html=1;align=center;fillColor=#d5e8d4;strokeColor=#82b366;strokeWidth=2;" parent="1" vertex="1">
          <mxGeometry x="308" y="627" width="100" height="40" as="geometry" />
        </mxCell>
        <mxCell id="Kj0WefBD7DP0aJq1Dyyi-8" value="1:N" style="text;html=1;align=center;verticalAlign=middle;resizable=0;points=[];autosize=1;strokeColor=none;fillColor=none;" parent="1" vertex="1">
          <mxGeometry x="559" y="591" width="40" height="30" as="geometry" />
        </mxCell>
        <mxCell id="Kj0WefBD7DP0aJq1Dyyi-12" value="N:M" style="text;html=1;align=center;verticalAlign=middle;resizable=0;points=[];autosize=1;strokeColor=none;fillColor=none;" parent="1" vertex="1">
          <mxGeometry x="585" y="401" width="50" height="30" as="geometry" />
        </mxCell>
        <mxCell id="Kj0WefBD7DP0aJq1Dyyi-13" value="WEB" style="ellipse;whiteSpace=wrap;html=1;align=center;strokeWidth=2;" parent="1" vertex="1">
          <mxGeometry x="105" y="545" width="55" height="40" as="geometry" />
        </mxCell>
        <mxCell id="Kj0WefBD7DP0aJq1Dyyi-14" value="ID" style="ellipse;whiteSpace=wrap;html=1;align=center;fontStyle=4;strokeWidth=2;fillColor=#dae8fc;strokeColor=#6c8ebf;" parent="1" vertex="1">
          <mxGeometry x="10" y="500" width="50" height="40" as="geometry" />
        </mxCell>
        <mxCell id="Kj0WefBD7DP0aJq1Dyyi-15" value="DIRECCIÃN" style="ellipse;whiteSpace=wrap;html=1;align=center;strokeWidth=2;" parent="1" vertex="1">
          <mxGeometry x="10" y="545" width="80" height="40" as="geometry" />
        </mxCell>
        <mxCell id="Kj0WefBD7DP0aJq1Dyyi-17" value="NOMBRE" style="ellipse;whiteSpace=wrap;html=1;align=center;strokeWidth=2;" parent="1" vertex="1">
          <mxGeometry x="70" y="500" width="56" height="40" as="geometry" />
        </mxCell>
        <mxCell id="Kj0WefBD7DP0aJq1Dyyi-27" value="TELÃFONO" style="ellipse;whiteSpace=wrap;html=1;align=center;strokeWidth=2;" parent="1" vertex="1">
          <mxGeometry x="140" y="500" width="70" height="40" as="geometry" />
        </mxCell>
        <mxCell id="Kj0WefBD7DP0aJq1Dyyi-32" value="ID" style="ellipse;whiteSpace=wrap;html=1;align=center;fontStyle=4;strokeWidth=2;fillColor=#dae8fc;strokeColor=#6c8ebf;" parent="1" vertex="1">
          <mxGeometry x="253" y="685" width="50" height="40" as="geometry" />
        </mxCell>
        <mxCell id="Kj0WefBD7DP0aJq1Dyyi-51" style="edgeStyle=orthogonalEdgeStyle;rounded=0;orthogonalLoop=1;jettySize=auto;html=1;exitX=0.5;exitY=0;exitDx=0;exitDy=0;entryX=0.434;entryY=0.99;entryDx=0;entryDy=0;entryPerimeter=0;endArrow=none;endFill=0;" parent="1" source="Kj0WefBD7DP0aJq1Dyyi-33" target="Kj0WefBD7DP0aJq1Dyyi-3" edge="1">
          <mxGeometry relative="1" as="geometry" />
        </mxCell>
        <mxCell id="Kj0WefBD7DP0aJq1Dyyi-33" value="NOMBRE" style="ellipse;whiteSpace=wrap;html=1;align=center;strokeWidth=2;" parent="1" vertex="1">
          <mxGeometry x="323" y="685" width="56" height="40" as="geometry" />
        </mxCell>
        <mxCell id="Kj0WefBD7DP0aJq1Dyyi-43" value="" style="edgeStyle=orthogonalEdgeStyle;rounded=0;orthogonalLoop=1;jettySize=auto;html=1;endArrow=none;endFill=0;" parent="1" source="Kj0WefBD7DP0aJq1Dyyi-34" target="Kj0WefBD7DP0aJq1Dyyi-40" edge="1">
          <mxGeometry relative="1" as="geometry" />
        </mxCell>
        <mxCell id="Kj0WefBD7DP0aJq1Dyyi-45" style="edgeStyle=orthogonalEdgeStyle;rounded=0;orthogonalLoop=1;jettySize=auto;html=1;exitX=1;exitY=1;exitDx=0;exitDy=0;endArrow=none;endFill=0;" parent="1" source="Kj0WefBD7DP0aJq1Dyyi-34" target="Kj0WefBD7DP0aJq1Dyyi-42" edge="1">
          <mxGeometry relative="1" as="geometry" />
        </mxCell>
        <mxCell id="Kj0WefBD7DP0aJq1Dyyi-46" style="edgeStyle=orthogonalEdgeStyle;rounded=0;orthogonalLoop=1;jettySize=auto;html=1;exitX=1;exitY=0.5;exitDx=0;exitDy=0;entryX=0.5;entryY=0;entryDx=0;entryDy=0;endArrow=none;endFill=0;" parent="1" source="Kj0WefBD7DP0aJq1Dyyi-34" target="Kj0WefBD7DP0aJq1Dyyi-41" edge="1">
          <mxGeometry relative="1" as="geometry" />
        </mxCell>
        <mxCell id="Kj0WefBD7DP0aJq1Dyyi-53" style="edgeStyle=orthogonalEdgeStyle;rounded=0;orthogonalLoop=1;jettySize=auto;html=1;exitX=0;exitY=0;exitDx=0;exitDy=0;entryX=1;entryY=1;entryDx=0;entryDy=0;endArrow=none;endFill=0;" parent="1" source="Kj0WefBD7DP0aJq1Dyyi-34" target="Kj0WefBD7DP0aJq1Dyyi-3" edge="1">
          <mxGeometry relative="1" as="geometry" />
        </mxCell>
        <mxCell id="Kj0WefBD7DP0aJq1Dyyi-34" value="DIRECCIÃN" style="ellipse;whiteSpace=wrap;html=1;align=center;strokeWidth=2;" parent="1" vertex="1">
          <mxGeometry x="413" y="680" width="80" height="45" as="geometry" />
        </mxCell>
        <mxCell id="Kj0WefBD7DP0aJq1Dyyi-54" style="edgeStyle=orthogonalEdgeStyle;rounded=0;orthogonalLoop=1;jettySize=auto;html=1;exitX=0.5;exitY=0;exitDx=0;exitDy=0;entryX=0.069;entryY=1.076;entryDx=0;entryDy=0;entryPerimeter=0;endArrow=none;endFill=0;" parent="1" source="Kj0WefBD7DP0aJq1Dyyi-35" target="Kj0WefBD7DP0aJq1Dyyi-3" edge="1">
          <mxGeometry relative="1" as="geometry" />
        </mxCell>
        <mxCell id="Kj0WefBD7DP0aJq1Dyyi-35" value="TELÃFONO" style="ellipse;whiteSpace=wrap;html=1;align=center;strokeWidth=2;" parent="1" vertex="1">
          <mxGeometry x="273" y="745" width="70" height="40" as="geometry" />
        </mxCell>
        <mxCell id="Kj0WefBD7DP0aJq1Dyyi-52" style="edgeStyle=orthogonalEdgeStyle;rounded=0;orthogonalLoop=1;jettySize=auto;html=1;exitX=0.5;exitY=0;exitDx=0;exitDy=0;entryX=0.222;entryY=0.897;entryDx=0;entryDy=0;entryPerimeter=0;endArrow=none;endFill=0;" parent="1" source="Kj0WefBD7DP0aJq1Dyyi-37" target="Kj0WefBD7DP0aJq1Dyyi-34" edge="1">
          <mxGeometry relative="1" as="geometry" />
        </mxCell>
        <mxCell id="Kj0WefBD7DP0aJq1Dyyi-37" value="CALLE" style="ellipse;whiteSpace=wrap;html=1;align=center;strokeWidth=2;" parent="1" vertex="1">
          <mxGeometry x="358" y="785" width="60" height="40" as="geometry" />
        </mxCell>
        <mxCell id="Kj0WefBD7DP0aJq1Dyyi-40" value="NÂº" style="ellipse;whiteSpace=wrap;html=1;align=center;strokeWidth=2;" parent="1" vertex="1">
          <mxGeometry x="433" y="785" width="40" height="40" as="geometry" />
        </mxCell>
        <mxCell id="Kj0WefBD7DP0aJq1Dyyi-41" value="PROVINCIA" style="ellipse;whiteSpace=wrap;html=1;align=center;strokeWidth=2;" parent="1" vertex="1">
          <mxGeometry x="559" y="785" width="84" height="40" as="geometry" />
        </mxCell>
        <mxCell id="Kj0WefBD7DP0aJq1Dyyi-42" value="CIUDAD" style="ellipse;whiteSpace=wrap;html=1;align=center;strokeWidth=2;" parent="1" vertex="1">
          <mxGeometry x="489" y="785" width="60" height="40" as="geometry" />
        </mxCell>
        <mxCell id="Ck0YGmdOxlJx7nrVWxFj-1" value="CANTIDAD" style="ellipse;whiteSpace=wrap;html=1;align=center;strokeWidth=2;" vertex="1" parent="1">
          <mxGeometry x="573" y="520" width="70" height="40" as="geometry" />
        </mxCell>
        <mxCell id="Ck0YGmdOxlJx7nrVWxFj-3" value="ID" style="ellipse;whiteSpace=wrap;html=1;align=center;fontStyle=4;" vertex="1" parent="1">
          <mxGeometry x="890" y="420" width="40" height="21" as="geometry" />
        </mxCell>
        <mxCell id="Ck0YGmdOxlJx7nrVWxFj-4" value="FECHA" style="ellipse;whiteSpace=wrap;html=1;align=center;" vertex="1" parent="1">
          <mxGeometry x="890" y="452" width="70" height="29" as="geometry" />
        </mxCell>
        <mxCell id="Ck0YGmdOxlJx7nrVWxFj-5" value="&lt;div&gt;PRECIO&lt;/div&gt;&lt;div&gt;FINAL&lt;br&gt;&lt;/div&gt;" style="ellipse;whiteSpace=wrap;html=1;align=center;dashed=1;" vertex="1" parent="1">
          <mxGeometry x="880" y="491" width="90" height="33" as="geometry" />
        </mxCell>
        <mxCell id="Ck0YGmdOxlJx7nrVWxFj-6" value="DESCUENTO" style="ellipse;whiteSpace=wrap;html=1;align=center;" vertex="1" parent="1">
          <mxGeometry x="810" y="371" width="90" height="30" as="geometry" />
        </mxCell>
        <mxCell id="Ck0YGmdOxlJx7nrVWxFj-13" value="ID" style="ellipse;whiteSpace=wrap;html=1;align=center;fontStyle=4;" vertex="1" parent="1">
          <mxGeometry x="313" y="500" width="40" height="21" as="geometry" />
        </mxCell>
        <mxCell id="Ck0YGmdOxlJx7nrVWxFj-14" value="NOMBRE" style="ellipse;whiteSpace=wrap;html=1;align=center;" vertex="1" parent="1">
          <mxGeometry x="363" y="525.5" width="70" height="29" as="geometry" />
        </mxCell>
        <mxCell id="Ck0YGmdOxlJx7nrVWxFj-17" value="PRECIO" style="ellipse;whiteSpace=wrap;html=1;align=center;" vertex="1" parent="1">
          <mxGeometry x="440" y="524" width="70" height="29" as="geometry" />
        </mxCell>
        <mxCell id="Ck0YGmdOxlJx7nrVWxFj-18" value="STOCK" style="ellipse;whiteSpace=wrap;html=1;align=center;" vertex="1" parent="1">
          <mxGeometry x="484" y="491" width="70" height="29" as="geometry" />
        </mxCell>
        <mxCell id="Ck0YGmdOxlJx7nrVWxFj-30" value="ID" style="ellipse;whiteSpace=wrap;html=1;align=center;fontStyle=4;" vertex="1" parent="1">
          <mxGeometry x="787" y="304.5" width="40" height="21" as="geometry" />
        </mxCell>
        <mxCell id="Ck0YGmdOxlJx7nrVWxFj-31" value="NOMBRE" style="ellipse;whiteSpace=wrap;html=1;align=center;" vertex="1" parent="1">
          <mxGeometry x="610" y="236" width="70" height="29" as="geometry" />
        </mxCell>
        <mxCell id="Ck0YGmdOxlJx7nrVWxFj-32" value="DESCRIPCIÃN" style="ellipse;whiteSpace=wrap;html=1;align=center;" vertex="1" parent="1">
          <mxGeometry x="730" y="236" width="105" height="29" as="geometry" />
        </mxCell>
        <mxCell id="Ck0YGmdOxlJx7nrVWxFj-36" style="edgeStyle=orthogonalEdgeStyle;rounded=0;orthogonalLoop=1;jettySize=auto;html=1;exitX=1;exitY=0.5;exitDx=0;exitDy=0;entryX=0;entryY=0.5;entryDx=0;entryDy=0;endArrow=none;endFill=0;" edge="1" source="Ck0YGmdOxlJx7nrVWxFj-38" target="Ck0YGmdOxlJx7nrVWxFj-45" parent="1">
          <mxGeometry relative="1" as="geometry" />
        </mxCell>
        <mxCell id="Ck0YGmdOxlJx7nrVWxFj-38" value="PROVEEDOR" style="whiteSpace=wrap;html=1;align=center;fillColor=#d5e8d4;strokeColor=#82b366;strokeWidth=2;" vertex="1" parent="1">
          <mxGeometry x="78" y="-710" width="100" height="40" as="geometry" />
        </mxCell>
        <mxCell id="Ck0YGmdOxlJx7nrVWxFj-40" style="edgeStyle=orthogonalEdgeStyle;rounded=0;orthogonalLoop=1;jettySize=auto;html=1;exitX=0.5;exitY=1;exitDx=0;exitDy=0;endArrow=none;endFill=0;" edge="1" source="Ck0YGmdOxlJx7nrVWxFj-42" parent="1">
          <mxGeometry relative="1" as="geometry">
            <mxPoint x="468.2758620689656" y="-669.9310344827584" as="targetPoint" />
          </mxGeometry>
        </mxCell>
        <mxCell id="Ck0YGmdOxlJx7nrVWxFj-42" value="PRODUCTO" style="whiteSpace=wrap;html=1;align=center;fillColor=#d5e8d4;strokeColor=#82b366;strokeWidth=2;" vertex="1" parent="1">
          <mxGeometry x="418" y="-710" width="100" height="40" as="geometry" />
        </mxCell>
        <mxCell id="Ck0YGmdOxlJx7nrVWxFj-43" style="edgeStyle=orthogonalEdgeStyle;rounded=0;orthogonalLoop=1;jettySize=auto;html=1;exitX=1;exitY=0.5;exitDx=0;exitDy=0;endArrow=none;endFill=0;" edge="1" source="Ck0YGmdOxlJx7nrVWxFj-45" target="Ck0YGmdOxlJx7nrVWxFj-42" parent="1">
          <mxGeometry relative="1" as="geometry" />
        </mxCell>
        <mxCell id="Ck0YGmdOxlJx7nrVWxFj-45" value="PROVEE" style="shape=rhombus;perimeter=rhombusPerimeter;whiteSpace=wrap;html=1;align=center;fillColor=#fff2cc;strokeColor=#d6b656;strokeWidth=2;" vertex="1" parent="1">
          <mxGeometry x="243" y="-720" width="120" height="60" as="geometry" />
        </mxCell>
        <mxCell id="Ck0YGmdOxlJx7nrVWxFj-47" style="edgeStyle=orthogonalEdgeStyle;rounded=0;orthogonalLoop=1;jettySize=auto;html=1;exitX=1;exitY=0.5;exitDx=0;exitDy=0;entryX=0;entryY=0.5;entryDx=0;entryDy=0;endArrow=none;endFill=0;" edge="1" source="Ck0YGmdOxlJx7nrVWxFj-48" target="Ck0YGmdOxlJx7nrVWxFj-52" parent="1">
          <mxGeometry relative="1" as="geometry" />
        </mxCell>
        <mxCell id="Ck0YGmdOxlJx7nrVWxFj-48" value="CATEGORÃA" style="whiteSpace=wrap;html=1;align=center;fillColor=#d5e8d4;strokeColor=#82b366;strokeWidth=2;" vertex="1" parent="1">
          <mxGeometry x="78" y="-631" width="100" height="40" as="geometry" />
        </mxCell>
        <mxCell id="Ck0YGmdOxlJx7nrVWxFj-49" style="edgeStyle=orthogonalEdgeStyle;rounded=0;orthogonalLoop=1;jettySize=auto;html=1;exitX=0.5;exitY=1;exitDx=0;exitDy=0;endArrow=none;endFill=0;" edge="1" source="Ck0YGmdOxlJx7nrVWxFj-50" parent="1">
          <mxGeometry relative="1" as="geometry">
            <mxPoint x="468.2758620689656" y="-590.9310344827582" as="targetPoint" />
          </mxGeometry>
        </mxCell>
        <mxCell id="Ck0YGmdOxlJx7nrVWxFj-50" value="PRODUCTO" style="whiteSpace=wrap;html=1;align=center;fillColor=#d5e8d4;strokeColor=#82b366;strokeWidth=2;" vertex="1" parent="1">
          <mxGeometry x="418" y="-631" width="100" height="40" as="geometry" />
        </mxCell>
        <mxCell id="Ck0YGmdOxlJx7nrVWxFj-51" style="edgeStyle=orthogonalEdgeStyle;rounded=0;orthogonalLoop=1;jettySize=auto;html=1;exitX=1;exitY=0.5;exitDx=0;exitDy=0;endArrow=none;endFill=0;" edge="1" source="Ck0YGmdOxlJx7nrVWxFj-52" target="Ck0YGmdOxlJx7nrVWxFj-50" parent="1">
          <mxGeometry relative="1" as="geometry" />
        </mxCell>
        <mxCell id="Ck0YGmdOxlJx7nrVWxFj-52" value="CLASIFICA" style="shape=rhombus;perimeter=rhombusPerimeter;whiteSpace=wrap;html=1;align=center;fillColor=#fff2cc;strokeColor=#d6b656;strokeWidth=2;" vertex="1" parent="1">
          <mxGeometry x="243" y="-641" width="120" height="60" as="geometry" />
        </mxCell>
        <mxCell id="Ck0YGmdOxlJx7nrVWxFj-53" style="edgeStyle=orthogonalEdgeStyle;rounded=0;orthogonalLoop=1;jettySize=auto;html=1;exitX=1;exitY=0.5;exitDx=0;exitDy=0;entryX=0;entryY=0.5;entryDx=0;entryDy=0;endArrow=none;endFill=0;" edge="1" source="Ck0YGmdOxlJx7nrVWxFj-54" target="Ck0YGmdOxlJx7nrVWxFj-58" parent="1">
          <mxGeometry relative="1" as="geometry" />
        </mxCell>
        <mxCell id="Ck0YGmdOxlJx7nrVWxFj-54" value="VENTA" style="whiteSpace=wrap;html=1;align=center;fillColor=#d5e8d4;strokeColor=#82b366;strokeWidth=2;" vertex="1" parent="1">
          <mxGeometry x="78" y="-551" width="100" height="40" as="geometry" />
        </mxCell>
        <mxCell id="Ck0YGmdOxlJx7nrVWxFj-55" style="edgeStyle=orthogonalEdgeStyle;rounded=0;orthogonalLoop=1;jettySize=auto;html=1;exitX=0.5;exitY=1;exitDx=0;exitDy=0;endArrow=none;endFill=0;" edge="1" source="Ck0YGmdOxlJx7nrVWxFj-56" parent="1">
          <mxGeometry relative="1" as="geometry">
            <mxPoint x="468.2758620689656" y="-510.93103448275815" as="targetPoint" />
          </mxGeometry>
        </mxCell>
        <mxCell id="Ck0YGmdOxlJx7nrVWxFj-56" value="PRODUCTO" style="whiteSpace=wrap;html=1;align=center;fillColor=#d5e8d4;strokeColor=#82b366;strokeWidth=2;" vertex="1" parent="1">
          <mxGeometry x="418" y="-551" width="100" height="40" as="geometry" />
        </mxCell>
        <mxCell id="Ck0YGmdOxlJx7nrVWxFj-57" style="edgeStyle=orthogonalEdgeStyle;rounded=0;orthogonalLoop=1;jettySize=auto;html=1;exitX=1;exitY=0.5;exitDx=0;exitDy=0;endArrow=none;endFill=0;" edge="1" source="Ck0YGmdOxlJx7nrVWxFj-58" target="Ck0YGmdOxlJx7nrVWxFj-56" parent="1">
          <mxGeometry relative="1" as="geometry" />
        </mxCell>
        <mxCell id="Ck0YGmdOxlJx7nrVWxFj-58" value="DETALLE" style="shape=rhombus;perimeter=rhombusPerimeter;whiteSpace=wrap;html=1;align=center;fillColor=#fff2cc;strokeColor=#d6b656;strokeWidth=2;" vertex="1" parent="1">
          <mxGeometry x="243" y="-561" width="120" height="60" as="geometry" />
        </mxCell>
        <mxCell id="Ck0YGmdOxlJx7nrVWxFj-59" style="edgeStyle=orthogonalEdgeStyle;rounded=0;orthogonalLoop=1;jettySize=auto;html=1;exitX=1;exitY=0.5;exitDx=0;exitDy=0;entryX=0;entryY=0.5;entryDx=0;entryDy=0;endArrow=none;endFill=0;" edge="1" parent="1" source="Ck0YGmdOxlJx7nrVWxFj-60" target="Ck0YGmdOxlJx7nrVWxFj-64">
          <mxGeometry relative="1" as="geometry" />
        </mxCell>
        <mxCell id="Ck0YGmdOxlJx7nrVWxFj-60" value="VENTA" style="whiteSpace=wrap;html=1;align=center;fillColor=#d5e8d4;strokeColor=#82b366;strokeWidth=2;" vertex="1" parent="1">
          <mxGeometry x="78" y="-471" width="100" height="40" as="geometry" />
        </mxCell>
        <mxCell id="Ck0YGmdOxlJx7nrVWxFj-61" style="edgeStyle=orthogonalEdgeStyle;rounded=0;orthogonalLoop=1;jettySize=auto;html=1;exitX=0.5;exitY=1;exitDx=0;exitDy=0;endArrow=none;endFill=0;" edge="1" parent="1" source="Ck0YGmdOxlJx7nrVWxFj-62">
          <mxGeometry relative="1" as="geometry">
            <mxPoint x="468.2758620689656" y="-430.93103448275815" as="targetPoint" />
          </mxGeometry>
        </mxCell>
        <mxCell id="Ck0YGmdOxlJx7nrVWxFj-62" value="CLIENTE" style="whiteSpace=wrap;html=1;align=center;fillColor=#d5e8d4;strokeColor=#82b366;strokeWidth=2;" vertex="1" parent="1">
          <mxGeometry x="418" y="-471" width="100" height="40" as="geometry" />
        </mxCell>
        <mxCell id="Ck0YGmdOxlJx7nrVWxFj-63" style="edgeStyle=orthogonalEdgeStyle;rounded=0;orthogonalLoop=1;jettySize=auto;html=1;exitX=1;exitY=0.5;exitDx=0;exitDy=0;endArrow=none;endFill=0;" edge="1" parent="1" source="Ck0YGmdOxlJx7nrVWxFj-64" target="Ck0YGmdOxlJx7nrVWxFj-62">
          <mxGeometry relative="1" as="geometry" />
        </mxCell>
        <mxCell id="Ck0YGmdOxlJx7nrVWxFj-64" value="COMPRA " style="shape=rhombus;perimeter=rhombusPerimeter;whiteSpace=wrap;html=1;align=center;fillColor=#fff2cc;strokeColor=#d6b656;strokeWidth=2;" vertex="1" parent="1">
          <mxGeometry x="243" y="-481" width="120" height="60" as="geometry" />
        </mxCell>
        <mxCell id="Ck0YGmdOxlJx7nrVWxFj-65" style="edgeStyle=orthogonalEdgeStyle;rounded=0;orthogonalLoop=1;jettySize=auto;html=1;exitX=1;exitY=0.5;exitDx=0;exitDy=0;entryX=0;entryY=0.5;entryDx=0;entryDy=0;endArrow=none;endFill=0;" edge="1" parent="1" source="Ck0YGmdOxlJx7nrVWxFj-71" target="Ck0YGmdOxlJx7nrVWxFj-84">
          <mxGeometry relative="1" as="geometry" />
        </mxCell>
        <mxCell id="Ck0YGmdOxlJx7nrVWxFj-71" value="PROVEEDOR" style="whiteSpace=wrap;html=1;align=center;fillColor=#d5e8d4;strokeColor=#82b366;strokeWidth=2;" vertex="1" parent="1">
          <mxGeometry x="145" y="-175" width="100" height="40" as="geometry" />
        </mxCell>
        <mxCell id="Ck0YGmdOxlJx7nrVWxFj-72" style="edgeStyle=orthogonalEdgeStyle;rounded=0;orthogonalLoop=1;jettySize=auto;html=1;exitX=0.5;exitY=0;exitDx=0;exitDy=0;endArrow=none;endFill=0;entryX=0;entryY=0.5;entryDx=0;entryDy=0;" edge="1" parent="1" source="Ck0YGmdOxlJx7nrVWxFj-81" target="Ck0YGmdOxlJx7nrVWxFj-86">
          <mxGeometry relative="1" as="geometry">
            <mxPoint x="535" y="-266" as="targetPoint" />
          </mxGeometry>
        </mxCell>
        <mxCell id="Ck0YGmdOxlJx7nrVWxFj-74" style="edgeStyle=orthogonalEdgeStyle;rounded=0;orthogonalLoop=1;jettySize=auto;html=1;exitX=1;exitY=0.5;exitDx=0;exitDy=0;entryX=0;entryY=0.5;entryDx=0;entryDy=0;endArrow=none;endFill=0;" edge="1" parent="1" source="Ck0YGmdOxlJx7nrVWxFj-81" target="Ck0YGmdOxlJx7nrVWxFj-95">
          <mxGeometry relative="1" as="geometry" />
        </mxCell>
        <mxCell id="Ck0YGmdOxlJx7nrVWxFj-81" value="PRODUCTO" style="whiteSpace=wrap;html=1;align=center;fillColor=#d5e8d4;strokeColor=#82b366;strokeWidth=2;" vertex="1" parent="1">
          <mxGeometry x="485" y="-175" width="100" height="40" as="geometry" />
        </mxCell>
        <mxCell id="Ck0YGmdOxlJx7nrVWxFj-82" style="edgeStyle=orthogonalEdgeStyle;rounded=0;orthogonalLoop=1;jettySize=auto;html=1;exitX=1;exitY=0.5;exitDx=0;exitDy=0;endArrow=none;endFill=0;" edge="1" parent="1" source="Ck0YGmdOxlJx7nrVWxFj-84" target="Ck0YGmdOxlJx7nrVWxFj-81">
          <mxGeometry relative="1" as="geometry" />
        </mxCell>
        <mxCell id="Ck0YGmdOxlJx7nrVWxFj-84" value="PROVEE" style="shape=rhombus;perimeter=rhombusPerimeter;whiteSpace=wrap;html=1;align=center;fillColor=#fff2cc;strokeColor=#d6b656;strokeWidth=2;" vertex="1" parent="1">
          <mxGeometry x="310" y="-185" width="120" height="60" as="geometry" />
        </mxCell>
        <mxCell id="Ck0YGmdOxlJx7nrVWxFj-86" value="CLASIFICA" style="shape=rhombus;perimeter=rhombusPerimeter;whiteSpace=wrap;html=1;align=center;fillColor=#fff2cc;strokeColor=#d6b656;strokeWidth=2;" vertex="1" parent="1">
          <mxGeometry x="555" y="-331" width="120" height="60" as="geometry" />
        </mxCell>
        <mxCell id="Ck0YGmdOxlJx7nrVWxFj-87" style="edgeStyle=orthogonalEdgeStyle;rounded=0;orthogonalLoop=1;jettySize=auto;html=1;entryX=1;entryY=0.5;entryDx=0;entryDy=0;endArrow=none;endFill=0;" edge="1" parent="1" source="Ck0YGmdOxlJx7nrVWxFj-92" target="Ck0YGmdOxlJx7nrVWxFj-86">
          <mxGeometry relative="1" as="geometry" />
        </mxCell>
        <mxCell id="Ck0YGmdOxlJx7nrVWxFj-92" value="CATEGORÃA" style="whiteSpace=wrap;html=1;align=center;fillColor=#d5e8d4;strokeColor=#82b366;strokeWidth=2;" vertex="1" parent="1">
          <mxGeometry x="745" y="-321" width="100" height="40" as="geometry" />
        </mxCell>
        <mxCell id="Ck0YGmdOxlJx7nrVWxFj-95" value="DETALLE" style="shape=rhombus;perimeter=rhombusPerimeter;whiteSpace=wrap;html=1;align=center;fillColor=#fff2cc;strokeColor=#d6b656;strokeWidth=2;" vertex="1" parent="1">
          <mxGeometry x="645" y="-185" width="120" height="60" as="geometry" />
        </mxCell>
        <mxCell id="Ck0YGmdOxlJx7nrVWxFj-96" style="edgeStyle=orthogonalEdgeStyle;rounded=0;orthogonalLoop=1;jettySize=auto;html=1;exitX=0;exitY=0.5;exitDx=0;exitDy=0;entryX=1;entryY=0.5;entryDx=0;entryDy=0;endArrow=none;endFill=0;" edge="1" parent="1" source="Ck0YGmdOxlJx7nrVWxFj-102" target="Ck0YGmdOxlJx7nrVWxFj-95">
          <mxGeometry relative="1" as="geometry" />
        </mxCell>
        <mxCell id="Ck0YGmdOxlJx7nrVWxFj-102" value="VENTA" style="whiteSpace=wrap;html=1;align=center;fillColor=#d5e8d4;strokeColor=#82b366;strokeWidth=2;" vertex="1" parent="1">
          <mxGeometry x="845" y="-175" width="100" height="40" as="geometry" />
        </mxCell>
        <mxCell id="Ck0YGmdOxlJx7nrVWxFj-103" style="edgeStyle=orthogonalEdgeStyle;rounded=0;orthogonalLoop=1;jettySize=auto;html=1;exitX=1;exitY=0.5;exitDx=0;exitDy=0;entryX=0.5;entryY=1;entryDx=0;entryDy=0;endArrow=none;endFill=0;" edge="1" parent="1" source="Ck0YGmdOxlJx7nrVWxFj-105" target="Ck0YGmdOxlJx7nrVWxFj-102">
          <mxGeometry relative="1" as="geometry">
            <mxPoint x="487" y="16" as="sourcePoint" />
            <mxPoint x="535" y="-134.9999999999999" as="targetPoint" />
          </mxGeometry>
        </mxCell>
        <mxCell id="Ck0YGmdOxlJx7nrVWxFj-105" value="COMPRA" style="shape=rhombus;perimeter=rhombusPerimeter;whiteSpace=wrap;html=1;align=center;fillColor=#fff2cc;strokeColor=#d6b656;strokeWidth=2;" vertex="1" parent="1">
          <mxGeometry x="613" y="1" width="120" height="60" as="geometry" />
        </mxCell>
        <mxCell id="Ck0YGmdOxlJx7nrVWxFj-106" style="edgeStyle=orthogonalEdgeStyle;rounded=0;orthogonalLoop=1;jettySize=auto;html=1;exitX=1;exitY=0.5;exitDx=0;exitDy=0;entryX=0;entryY=0.5;entryDx=0;entryDy=0;endArrow=none;endFill=0;" edge="1" parent="1" source="Ck0YGmdOxlJx7nrVWxFj-109" target="Ck0YGmdOxlJx7nrVWxFj-105">
          <mxGeometry relative="1" as="geometry" />
        </mxCell>
        <mxCell id="Ck0YGmdOxlJx7nrVWxFj-109" value="CLIENTE" style="whiteSpace=wrap;html=1;align=center;fillColor=#d5e8d4;strokeColor=#82b366;strokeWidth=2;" vertex="1" parent="1">
          <mxGeometry x="403" y="11" width="100" height="40" as="geometry" />
        </mxCell>
      </root>
    </mxGraphModel>
  </diagram>
</mxfile>
